<?xml version="1.0" encoding="UTF-8"?>
<svg id="Capa_2" data-name="Capa 2" xmlns="http://www.w3.org/2000/svg" viewBox="0 0 1760.15 84.51">
  <defs>
    <style>
      .cls-1 {
        fill: #242424;
      }
    </style>
  </defs>
  <g id="Capa_1-2">
    <g>
      <polygon class="cls-1" points="32.66 49.17 36.82 42.26 32.66 35.35 25.15 35.35 29.79 42.16 25.15 49.17 32.66 49.17"/>
      <polygon class="cls-1" points="47.72 49.17 51.88 42.26 47.72 35.35 40.21 35.35 44.85 42.16 40.21 49.17 47.72 49.17"/>
      <polygon class="cls-1" points="62.78 49.17 66.93 42.26 62.78 35.35 55.27 35.35 59.9 42.16 55.27 49.17 62.78 49.17"/>
      <polygon class="cls-1" points="77.84 49.17 81.99 42.26 77.84 35.35 70.33 35.35 74.96 42.16 70.33 49.17 77.84 49.17"/>
      <polygon class="cls-1" points="92.9 49.17 97.05 42.26 92.9 35.35 85.38 35.35 90.02 42.16 85.38 49.17 92.9 49.17"/>
      <polygon class="cls-1" points="107.95 49.17 112.11 42.26 107.95 35.35 100.44 35.35 105.08 42.16 100.44 49.17 107.95 49.17"/>
      <polygon class="cls-1" points="123.01 49.17 127.17 42.26 123.01 35.35 115.5 35.35 120.14 42.16 115.5 49.17 123.01 49.17"/>
      <polygon class="cls-1" points="138.07 49.17 142.23 42.26 138.07 35.35 130.56 35.35 135.19 42.16 130.56 49.17 138.07 49.17"/>
      <polygon class="cls-1" points="153.13 49.17 157.28 42.26 153.13 35.35 145.62 35.35 150.25 42.16 145.62 49.17 153.13 49.17"/>
      <polygon class="cls-1" points="168.19 49.17 172.34 42.26 168.19 35.35 160.67 35.35 165.31 42.16 160.67 49.17 168.19 49.17"/>
      <polygon class="cls-1" points="183.25 49.17 187.4 42.26 183.25 35.35 175.73 35.35 180.37 42.16 175.73 49.17 183.25 49.17"/>
      <polygon class="cls-1" points="198.3 49.17 202.46 42.26 198.3 35.35 190.79 35.35 195.43 42.16 190.79 49.17 198.3 49.17"/>
      <polygon class="cls-1" points="213.36 49.17 217.52 42.26 213.36 35.35 205.85 35.35 210.48 42.16 205.85 49.17 213.36 49.17"/>
      <polygon class="cls-1" points="228.42 49.17 232.57 42.26 228.42 35.35 220.91 35.35 225.54 42.16 220.91 49.17 228.42 49.17"/>
      <polygon class="cls-1" points="243.48 49.17 247.63 42.26 243.48 35.35 235.97 35.35 240.6 42.16 235.97 49.17 243.48 49.17"/>
      <polygon class="cls-1" points="258.54 49.17 262.69 42.26 258.54 35.35 251.02 35.35 255.66 42.16 251.02 49.17 258.54 49.17"/>
      <polygon class="cls-1" points="273.59 49.17 277.75 42.26 273.59 35.35 266.08 35.35 270.72 42.16 266.08 49.17 273.59 49.17"/>
      <polygon class="cls-1" points="288.65 49.17 292.81 42.26 288.65 35.35 281.14 35.35 285.78 42.16 281.14 49.17 288.65 49.17"/>
      <polygon class="cls-1" points="303.71 49.17 307.86 42.26 303.71 35.35 296.2 35.35 300.83 42.16 296.2 49.17 303.71 49.17"/>
      <polygon class="cls-1" points="318.77 49.17 322.92 42.26 318.77 35.35 311.26 35.35 315.89 42.16 311.26 49.17 318.77 49.17"/>
      <polygon class="cls-1" points="333.83 49.17 337.98 42.26 333.83 35.35 326.31 35.35 330.95 42.16 326.31 49.17 333.83 49.17"/>
      <polygon class="cls-1" points="348.89 49.17 353.04 42.26 348.89 35.35 341.37 35.35 346.01 42.16 341.37 49.17 348.89 49.17"/>
      <polygon class="cls-1" points="363.94 49.17 368.1 42.26 363.94 35.35 356.43 35.35 361.07 42.16 356.43 49.17 363.94 49.17"/>
      <polygon class="cls-1" points="379 49.17 383.16 42.26 379 35.35 371.49 35.35 376.12 42.16 371.49 49.17 379 49.17"/>
      <polygon class="cls-1" points="394.06 49.17 398.21 42.26 394.06 35.35 386.55 35.35 391.18 42.16 386.55 49.17 394.06 49.17"/>
      <polygon class="cls-1" points="409.12 49.17 413.27 42.26 409.12 35.35 401.61 35.35 406.24 42.16 401.61 49.17 409.12 49.17"/>
      <polygon class="cls-1" points="424.18 49.17 428.33 42.26 424.18 35.35 416.66 35.35 421.3 42.16 416.66 49.17 424.18 49.17"/>
      <polygon class="cls-1" points="439.23 49.17 443.39 42.26 439.23 35.35 431.72 35.35 436.36 42.16 431.72 49.17 439.23 49.17"/>
      <polygon class="cls-1" points="454.29 49.17 458.45 42.26 454.29 35.35 446.78 35.35 451.42 42.16 446.78 49.17 454.29 49.17"/>
      <polygon class="cls-1" points="469.35 49.17 473.5 42.26 469.35 35.35 461.84 35.35 466.47 42.16 461.84 49.17 469.35 49.17"/>
      <polygon class="cls-1" points="484.41 49.17 488.56 42.26 484.41 35.35 476.9 35.35 481.53 42.16 476.9 49.17 484.41 49.17"/>
      <polygon class="cls-1" points="499.47 49.17 503.62 42.26 499.47 35.35 491.95 35.35 496.59 42.16 491.95 49.17 499.47 49.17"/>
      <polygon class="cls-1" points="514.53 49.17 518.68 42.26 514.53 35.35 507.01 35.35 511.65 42.16 507.01 49.17 514.53 49.17"/>
      <polygon class="cls-1" points="529.58 49.17 533.74 42.26 529.58 35.35 522.07 35.35 526.71 42.16 522.07 49.17 529.58 49.17"/>
      <polygon class="cls-1" points="544.64 49.17 548.8 42.26 544.64 35.35 537.13 35.35 541.76 42.16 537.13 49.17 544.64 49.17"/>
      <polygon class="cls-1" points="559.7 49.17 563.85 42.26 559.7 35.35 552.19 35.35 556.82 42.16 552.19 49.17 559.7 49.17"/>
      <polygon class="cls-1" points="574.76 49.17 578.91 42.26 574.76 35.35 567.24 35.35 571.88 42.16 567.24 49.17 574.76 49.17"/>
      <polygon class="cls-1" points="589.82 49.17 593.97 42.26 589.82 35.35 582.3 35.35 586.94 42.16 582.3 49.17 589.82 49.17"/>
      <polygon class="cls-1" points="604.87 49.17 609.03 42.26 604.87 35.35 597.36 35.35 602 42.16 597.36 49.17 604.87 49.17"/>
      <polygon class="cls-1" points="619.93 49.17 624.09 42.26 619.93 35.35 612.42 35.35 617.06 42.16 612.42 49.17 619.93 49.17"/>
      <polygon class="cls-1" points="634.99 49.17 639.14 42.26 634.99 35.35 627.48 35.35 632.11 42.16 627.48 49.17 634.99 49.17"/>
      <polygon class="cls-1" points="650.05 49.17 654.2 42.26 650.05 35.35 642.54 35.35 647.17 42.16 642.54 49.17 650.05 49.17"/>
      <polygon class="cls-1" points="665.11 49.17 669.26 42.26 665.11 35.35 657.59 35.35 662.23 42.16 657.59 49.17 665.11 49.17"/>
      <polygon class="cls-1" points="680.16 49.17 684.32 42.26 680.16 35.35 672.65 35.35 677.29 42.16 672.65 49.17 680.16 49.17"/>
      <polygon class="cls-1" points="695.22 49.17 699.38 42.26 695.22 35.35 687.71 35.35 692.35 42.16 687.71 49.17 695.22 49.17"/>
      <polygon class="cls-1" points="710.28 49.17 714.44 42.26 710.28 35.35 702.77 35.35 707.4 42.16 702.77 49.17 710.28 49.17"/>
      <polygon class="cls-1" points="725.34 49.17 729.49 42.26 725.34 35.35 717.83 35.35 722.46 42.16 717.83 49.17 725.34 49.17"/>
      <polygon class="cls-1" points="740.4 49.17 744.55 42.26 740.4 35.35 732.88 35.35 737.52 42.16 732.88 49.17 740.4 49.17"/>
      <polygon class="cls-1" points="755.46 49.17 759.61 42.26 755.46 35.35 747.94 35.35 752.58 42.16 747.94 49.17 755.46 49.17"/>
      <polygon class="cls-1" points="770.51 49.17 774.67 42.26 770.51 35.35 763 35.35 767.64 42.16 763 49.17 770.51 49.17"/>
      <polygon class="cls-1" points="785.57 49.17 789.73 42.26 785.57 35.35 778.06 35.35 782.7 42.16 778.06 49.17 785.57 49.17"/>
      <polygon class="cls-1" points="800.63 49.17 804.78 42.26 800.63 35.35 793.12 35.35 797.75 42.16 793.12 49.17 800.63 49.17"/>
      <polygon class="cls-1" points="815.69 49.17 819.84 42.26 815.69 35.35 808.18 35.35 812.81 42.16 808.18 49.17 815.69 49.17"/>
      <polygon class="cls-1" points="830.75 49.17 834.9 42.26 830.75 35.35 823.23 35.35 827.87 42.16 823.23 49.17 830.75 49.17"/>
      <polygon class="cls-1" points="845.8 49.17 849.96 42.26 845.8 35.35 838.29 35.35 842.93 42.16 838.29 49.17 845.8 49.17"/>
      <polygon class="cls-1" points="860.86 49.17 865.02 42.26 860.86 35.35 853.35 35.35 857.99 42.16 853.35 49.17 860.86 49.17"/>
      <polygon class="cls-1" points="875.92 49.17 880.08 42.26 875.92 35.35 868.41 35.35 873.04 42.16 868.41 49.17 875.92 49.17"/>
      <polygon class="cls-1" points="890.98 49.17 895.13 42.26 890.98 35.35 883.47 35.35 888.1 42.16 883.47 49.17 890.98 49.17"/>
      <polygon class="cls-1" points="906.04 49.17 910.19 42.26 906.04 35.35 898.52 35.35 903.16 42.16 898.52 49.17 906.04 49.17"/>
      <polygon class="cls-1" points="921.1 49.17 925.25 42.26 921.1 35.35 913.58 35.35 918.22 42.16 913.58 49.17 921.1 49.17"/>
      <polygon class="cls-1" points="936.15 49.17 940.31 42.26 936.15 35.35 928.64 35.35 933.28 42.16 928.64 49.17 936.15 49.17"/>
      <polygon class="cls-1" points="951.21 49.17 955.37 42.26 951.21 35.35 943.7 35.35 948.33 42.16 943.7 49.17 951.21 49.17"/>
      <polygon class="cls-1" points="966.27 49.17 970.42 42.26 966.27 35.35 958.76 35.35 963.39 42.16 958.76 49.17 966.27 49.17"/>
      <polygon class="cls-1" points="981.33 49.17 985.48 42.26 981.33 35.35 973.82 35.35 978.45 42.16 973.82 49.17 981.33 49.17"/>
      <polygon class="cls-1" points="996.39 49.17 1000.54 42.26 996.39 35.35 988.87 35.35 993.51 42.16 988.87 49.17 996.39 49.17"/>
      <polygon class="cls-1" points="1011.44 49.17 1015.6 42.26 1011.44 35.35 1003.93 35.35 1008.57 42.16 1003.93 49.17 1011.44 49.17"/>
      <polygon class="cls-1" points="1026.5 49.17 1030.66 42.26 1026.5 35.35 1018.99 35.35 1023.63 42.16 1018.99 49.17 1026.5 49.17"/>
      <polygon class="cls-1" points="1041.56 49.17 1045.71 42.26 1041.56 35.35 1034.05 35.35 1038.68 42.16 1034.05 49.17 1041.56 49.17"/>
      <polygon class="cls-1" points="1056.62 49.17 1060.77 42.26 1056.62 35.35 1049.11 35.35 1053.74 42.16 1049.11 49.17 1056.62 49.17"/>
      <polygon class="cls-1" points="1071.68 49.17 1075.83 42.26 1071.68 35.35 1064.16 35.35 1068.8 42.16 1064.16 49.17 1071.68 49.17"/>
      <polygon class="cls-1" points="1086.74 49.17 1090.89 42.26 1086.74 35.35 1079.22 35.35 1083.86 42.16 1079.22 49.17 1086.74 49.17"/>
      <polygon class="cls-1" points="1101.79 49.17 1105.95 42.26 1101.79 35.35 1094.28 35.35 1098.92 42.16 1094.28 49.17 1101.79 49.17"/>
      <path class="cls-1" d="M40.21,65.2h-15.06c-3.79,1.97-8.1,4.55-12.59,7.92-5.21,3.9-9.35,7.88-12.56,11.39h13.7c3.43-3.42,7.55-7.12,12.4-10.81,4.49-3.41,10.17-6.21,14.12-8.5Z"/>
      <path class="cls-1" d="M12.56,11.39c4.5,3.37,8.81,5.95,12.59,7.92h15.06c-3.95-2.29-9.63-5.09-14.12-8.5C21.24,7.12,17.13,3.42,13.7,0H0c3.21,3.51,7.35,7.49,12.56,11.39Z"/>
      <path class="cls-1" d="M58.9,65.2h-15.06c-3.79,1.97-8.1,4.55-12.59,7.92-5.21,3.9-9.35,7.88-12.56,11.39h13.7c3.43-3.42,7.55-7.12,12.4-10.81,4.49-3.41,10.17-6.21,14.12-8.5Z"/>
      <path class="cls-1" d="M31.25,11.39c4.5,3.37,8.81,5.95,12.59,7.92h15.06c-3.95-2.29-9.63-5.09-14.12-8.5-4.85-3.69-8.96-7.38-12.4-10.81h-13.7c3.21,3.51,7.35,7.49,12.56,11.39Z"/>
      <path class="cls-1" d="M77.6,65.2h-15.06c-3.79,1.97-8.1,4.55-12.59,7.92-5.21,3.9-9.35,7.88-12.56,11.39h13.7c3.44-3.42,7.55-7.12,12.4-10.81,4.49-3.41,10.17-6.21,14.12-8.5Z"/>
      <path class="cls-1" d="M49.94,11.39c4.5,3.37,8.81,5.95,12.59,7.92h15.06c-3.95-2.29-9.63-5.09-14.12-8.5-4.85-3.69-8.96-7.38-12.4-10.81h-13.7c3.21,3.51,7.35,7.49,12.56,11.39Z"/>
      <path class="cls-1" d="M96.29,65.2h-15.06c-3.79,1.97-8.1,4.55-12.59,7.92-5.21,3.9-9.35,7.88-12.56,11.39h13.7c3.44-3.42,7.55-7.12,12.4-10.81,4.49-3.41,10.17-6.21,14.12-8.5Z"/>
      <path class="cls-1" d="M68.64,11.39c4.5,3.37,8.81,5.95,12.59,7.92h15.06c-3.95-2.29-9.63-5.09-14.12-8.5-4.85-3.69-8.96-7.38-12.4-10.81h-13.7c3.21,3.51,7.35,7.49,12.56,11.39Z"/>
      <path class="cls-1" d="M114.98,65.2h-15.06c-3.79,1.97-8.1,4.55-12.59,7.92-5.21,3.9-9.35,7.88-12.56,11.39h13.7c3.44-3.42,7.55-7.12,12.4-10.81,4.49-3.41,10.17-6.21,14.12-8.5Z"/>
      <path class="cls-1" d="M87.33,11.39c4.5,3.37,8.81,5.95,12.59,7.92h15.06c-3.95-2.29-9.63-5.09-14.12-8.5-4.85-3.69-8.96-7.38-12.4-10.81h-13.7c3.21,3.51,7.35,7.49,12.56,11.39Z"/>
      <path class="cls-1" d="M133.67,65.2h-15.06c-3.79,1.97-8.1,4.55-12.59,7.92-5.21,3.9-9.35,7.88-12.56,11.39h13.7c3.43-3.42,7.55-7.12,12.4-10.81,4.49-3.41,10.17-6.21,14.12-8.5Z"/>
      <path class="cls-1" d="M106.02,11.39c4.5,3.37,8.81,5.95,12.59,7.92h15.06c-3.94-2.29-9.63-5.09-14.12-8.5-4.85-3.69-8.96-7.38-12.4-10.81h-13.7c3.21,3.51,7.35,7.49,12.56,11.39Z"/>
      <path class="cls-1" d="M152.37,65.2h-15.06c-3.79,1.97-8.1,4.55-12.59,7.92-5.21,3.9-9.35,7.88-12.56,11.39h13.7c3.44-3.42,7.55-7.12,12.4-10.81,4.49-3.41,10.17-6.21,14.12-8.5Z"/>
      <path class="cls-1" d="M124.72,11.39c4.5,3.37,8.81,5.95,12.59,7.92h15.06c-3.94-2.29-9.63-5.09-14.12-8.5-4.85-3.69-8.96-7.38-12.4-10.81h-13.7c3.21,3.51,7.35,7.49,12.56,11.39Z"/>
      <path class="cls-1" d="M171.06,65.2h-15.06c-3.79,1.97-8.1,4.55-12.59,7.92-5.21,3.9-9.35,7.88-12.56,11.39h13.7c3.44-3.42,7.55-7.12,12.4-10.81,4.49-3.41,10.17-6.21,14.12-8.5Z"/>
      <path class="cls-1" d="M143.41,11.39c4.5,3.37,8.81,5.95,12.59,7.92h15.06c-3.95-2.29-9.63-5.09-14.12-8.5-4.85-3.69-8.96-7.38-12.4-10.81h-13.7c3.21,3.51,7.35,7.49,12.56,11.39Z"/>
      <path class="cls-1" d="M189.75,65.2h-15.06c-3.79,1.97-8.1,4.55-12.59,7.92-5.21,3.9-9.35,7.88-12.56,11.39h13.7c3.44-3.42,7.55-7.12,12.4-10.81,4.49-3.41,10.17-6.21,14.12-8.5Z"/>
      <path class="cls-1" d="M162.1,11.39c4.5,3.37,8.81,5.95,12.59,7.92h15.06c-3.95-2.29-9.63-5.09-14.12-8.5-4.85-3.69-8.96-7.38-12.4-10.81h-13.7c3.21,3.51,7.35,7.49,12.56,11.39Z"/>
      <path class="cls-1" d="M208.45,65.2h-15.06c-3.79,1.97-8.1,4.55-12.59,7.92-5.21,3.9-9.35,7.88-12.56,11.39h13.7c3.44-3.42,7.55-7.12,12.4-10.81,4.49-3.41,10.17-6.21,14.12-8.5Z"/>
      <path class="cls-1" d="M180.8,11.39c4.5,3.37,8.81,5.95,12.59,7.92h15.06c-3.95-2.29-9.63-5.09-14.12-8.5-4.85-3.69-8.96-7.38-12.4-10.81h-13.7c3.21,3.51,7.35,7.49,12.56,11.39Z"/>
      <path class="cls-1" d="M227.14,65.2h-15.06c-3.79,1.97-8.1,4.55-12.59,7.92-5.21,3.9-9.35,7.88-12.56,11.39h13.7c3.44-3.42,7.55-7.12,12.4-10.81,4.49-3.41,10.17-6.21,14.12-8.5Z"/>
      <path class="cls-1" d="M199.49,11.39c4.5,3.37,8.81,5.95,12.59,7.92h15.06c-3.94-2.29-9.63-5.09-14.12-8.5-4.85-3.69-8.96-7.38-12.4-10.81h-13.7c3.21,3.51,7.35,7.49,12.56,11.39Z"/>
      <path class="cls-1" d="M245.83,65.2h-15.06c-3.79,1.97-8.1,4.55-12.59,7.92-5.21,3.9-9.35,7.88-12.56,11.39h13.7c3.44-3.42,7.55-7.12,12.4-10.81,4.49-3.41,10.17-6.21,14.12-8.5Z"/>
      <path class="cls-1" d="M218.18,11.39c4.5,3.37,8.81,5.95,12.59,7.92h15.06c-3.94-2.29-9.63-5.09-14.12-8.5-4.85-3.69-8.96-7.38-12.4-10.81h-13.7c3.21,3.51,7.35,7.49,12.56,11.39Z"/>
      <path class="cls-1" d="M264.52,65.2h-15.06c-3.79,1.97-8.1,4.55-12.59,7.92-5.21,3.9-9.35,7.88-12.56,11.39h13.7c3.44-3.42,7.55-7.12,12.4-10.81,4.49-3.41,10.17-6.21,14.12-8.5Z"/>
      <path class="cls-1" d="M236.87,11.39c4.5,3.37,8.81,5.95,12.59,7.92h15.06c-3.94-2.29-9.63-5.09-14.12-8.5-4.85-3.69-8.96-7.38-12.4-10.81h-13.7c3.21,3.51,7.35,7.49,12.56,11.39Z"/>
      <path class="cls-1" d="M283.22,65.2h-15.06c-3.79,1.97-8.1,4.55-12.59,7.92-5.21,3.9-9.35,7.88-12.56,11.39h13.7c3.43-3.42,7.55-7.12,12.4-10.81,4.49-3.41,10.17-6.21,14.12-8.5Z"/>
      <path class="cls-1" d="M255.57,11.39c4.5,3.37,8.81,5.95,12.59,7.92h15.06c-3.94-2.29-9.63-5.09-14.12-8.5-4.85-3.69-8.96-7.38-12.4-10.81h-13.7c3.21,3.51,7.35,7.49,12.56,11.39Z"/>
      <path class="cls-1" d="M301.91,65.2h-15.06c-3.79,1.97-8.1,4.55-12.59,7.92-5.21,3.9-9.35,7.88-12.56,11.39h13.7c3.44-3.42,7.55-7.12,12.4-10.81,4.49-3.41,10.17-6.21,14.12-8.5Z"/>
      <path class="cls-1" d="M274.26,11.39c4.5,3.37,8.81,5.95,12.59,7.92h15.06c-3.95-2.29-9.63-5.09-14.12-8.5-4.85-3.69-8.96-7.38-12.4-10.81h-13.7c3.21,3.51,7.35,7.49,12.56,11.39Z"/>
      <path class="cls-1" d="M320.6,65.2h-15.06c-3.79,1.97-8.1,4.55-12.59,7.92-5.21,3.9-9.35,7.88-12.56,11.39h13.7c3.43-3.42,7.55-7.12,12.4-10.81,4.49-3.41,10.17-6.21,14.12-8.5Z"/>
      <path class="cls-1" d="M292.95,11.39c4.5,3.37,8.81,5.95,12.59,7.92h15.06c-3.95-2.29-9.63-5.09-14.12-8.5-4.85-3.69-8.96-7.38-12.4-10.81h-13.7c3.21,3.51,7.35,7.49,12.56,11.39Z"/>
      <path class="cls-1" d="M339.3,65.2h-15.06c-3.79,1.97-8.1,4.55-12.59,7.92-5.21,3.9-9.35,7.88-12.56,11.39h13.7c3.44-3.42,7.55-7.12,12.4-10.81,4.49-3.41,10.17-6.21,14.12-8.5Z"/>
      <path class="cls-1" d="M311.65,11.39c4.5,3.37,8.81,5.95,12.59,7.92h15.06c-3.94-2.29-9.63-5.09-14.12-8.5-4.85-3.69-8.96-7.38-12.4-10.81h-13.7c3.21,3.51,7.35,7.49,12.56,11.39Z"/>
      <path class="cls-1" d="M357.99,65.2h-15.06c-3.79,1.97-8.1,4.55-12.59,7.92-5.21,3.9-9.35,7.88-12.56,11.39h13.7c3.44-3.42,7.55-7.12,12.4-10.81,4.49-3.41,10.17-6.21,14.12-8.5Z"/>
      <path class="cls-1" d="M330.34,11.39c4.5,3.37,8.81,5.95,12.59,7.92h15.06c-3.94-2.29-9.63-5.09-14.12-8.5-4.85-3.69-8.96-7.38-12.4-10.81h-13.7c3.21,3.51,7.35,7.49,12.56,11.39Z"/>
      <path class="cls-1" d="M376.68,65.2h-15.06c-3.79,1.97-8.1,4.55-12.59,7.92-5.21,3.9-9.35,7.88-12.56,11.39h13.7c3.43-3.42,7.55-7.12,12.4-10.81,4.49-3.41,10.17-6.21,14.12-8.5Z"/>
      <path class="cls-1" d="M349.03,11.39c4.5,3.37,8.81,5.95,12.59,7.92h15.06c-3.94-2.29-9.63-5.09-14.12-8.5-4.85-3.69-8.96-7.38-12.4-10.81h-13.7c3.21,3.51,7.35,7.49,12.56,11.39Z"/>
      <path class="cls-1" d="M395.37,65.2h-15.06c-3.79,1.97-8.1,4.55-12.59,7.92-5.21,3.9-9.35,7.88-12.56,11.39h13.7c3.43-3.42,7.55-7.12,12.4-10.81,4.49-3.41,10.17-6.21,14.12-8.5Z"/>
      <path class="cls-1" d="M367.72,11.39c4.5,3.37,8.81,5.95,12.59,7.92h15.06c-3.95-2.29-9.63-5.09-14.12-8.5-4.85-3.69-8.96-7.38-12.4-10.81h-13.7c3.21,3.51,7.35,7.49,12.56,11.39Z"/>
      <path class="cls-1" d="M414.07,65.2h-15.06c-3.79,1.97-8.1,4.55-12.59,7.92-5.21,3.9-9.35,7.88-12.56,11.39h13.7c3.43-3.42,7.55-7.12,12.4-10.81,4.49-3.41,10.17-6.21,14.12-8.5Z"/>
      <path class="cls-1" d="M386.42,11.39c4.5,3.37,8.81,5.95,12.59,7.92h15.06c-3.95-2.29-9.63-5.09-14.12-8.5-4.85-3.69-8.96-7.38-12.4-10.81h-13.7c3.21,3.51,7.35,7.49,12.56,11.39Z"/>
      <path class="cls-1" d="M432.76,65.2h-15.06c-3.79,1.97-8.1,4.55-12.59,7.92-5.21,3.9-9.35,7.88-12.56,11.39h13.7c3.44-3.42,7.55-7.12,12.4-10.81,4.49-3.41,10.17-6.21,14.12-8.5Z"/>
      <path class="cls-1" d="M405.11,11.39c4.5,3.37,8.81,5.95,12.59,7.92h15.06c-3.95-2.29-9.63-5.09-14.12-8.5-4.85-3.69-8.96-7.38-12.4-10.81h-13.7c3.21,3.51,7.35,7.49,12.56,11.39Z"/>
      <path class="cls-1" d="M451.45,65.2h-15.06c-3.79,1.97-8.1,4.55-12.59,7.92-5.21,3.9-9.35,7.88-12.56,11.39h13.7c3.44-3.42,7.55-7.12,12.4-10.81,4.49-3.41,10.17-6.21,14.12-8.5Z"/>
      <path class="cls-1" d="M423.8,11.39c4.5,3.37,8.81,5.95,12.59,7.92h15.06c-3.95-2.29-9.63-5.09-14.12-8.5-4.85-3.69-8.96-7.38-12.4-10.81h-13.7c3.21,3.51,7.35,7.49,12.56,11.39Z"/>
      <path class="cls-1" d="M470.15,65.2h-15.06c-3.79,1.97-8.1,4.55-12.59,7.92-5.21,3.9-9.35,7.88-12.56,11.39h13.7c3.44-3.42,7.55-7.12,12.4-10.81,4.49-3.41,10.17-6.21,14.12-8.5Z"/>
      <path class="cls-1" d="M442.5,11.39c4.5,3.37,8.81,5.95,12.59,7.92h15.06c-3.95-2.29-9.63-5.09-14.12-8.5-4.85-3.69-8.96-7.38-12.4-10.81h-13.7c3.21,3.51,7.35,7.49,12.56,11.39Z"/>
      <path class="cls-1" d="M488.84,65.2h-15.06c-3.79,1.97-8.1,4.55-12.59,7.92-5.21,3.9-9.35,7.88-12.56,11.39h13.7c3.44-3.42,7.55-7.12,12.4-10.81,4.49-3.41,10.17-6.21,14.12-8.5Z"/>
      <path class="cls-1" d="M461.19,11.39c4.5,3.37,8.81,5.95,12.59,7.92h15.06c-3.94-2.29-9.63-5.09-14.12-8.5-4.85-3.69-8.96-7.38-12.4-10.81h-13.7c3.21,3.51,7.35,7.49,12.56,11.39Z"/>
      <path class="cls-1" d="M507.53,65.2h-15.06c-3.79,1.97-8.1,4.55-12.59,7.92-5.21,3.9-9.35,7.88-12.56,11.39h13.7c3.44-3.42,7.55-7.12,12.4-10.81,4.49-3.41,10.17-6.21,14.12-8.5Z"/>
      <path class="cls-1" d="M479.88,11.39c4.5,3.37,8.81,5.95,12.59,7.92h15.06c-3.94-2.29-9.63-5.09-14.12-8.5-4.85-3.69-8.96-7.38-12.4-10.81h-13.7c3.21,3.51,7.35,7.49,12.56,11.39Z"/>
      <path class="cls-1" d="M526.22,65.2h-15.06c-3.79,1.97-8.1,4.55-12.59,7.92-5.21,3.9-9.35,7.88-12.56,11.39h13.7c3.44-3.42,7.55-7.12,12.4-10.81,4.49-3.41,10.17-6.21,14.12-8.5Z"/>
      <path class="cls-1" d="M498.57,11.39c4.5,3.37,8.81,5.95,12.59,7.92h15.06c-3.94-2.29-9.63-5.09-14.12-8.5-4.85-3.69-8.96-7.38-12.4-10.81h-13.7c3.21,3.51,7.35,7.49,12.56,11.39Z"/>
      <path class="cls-1" d="M544.92,65.2h-15.06c-3.79,1.97-8.1,4.55-12.59,7.92-5.21,3.9-9.35,7.88-12.56,11.39h13.7c3.44-3.42,7.55-7.12,12.4-10.81,4.49-3.41,10.17-6.21,14.12-8.5Z"/>
      <path class="cls-1" d="M517.27,11.39c4.5,3.37,8.81,5.95,12.59,7.92h15.06c-3.94-2.29-9.63-5.09-14.12-8.5-4.85-3.69-8.96-7.38-12.4-10.81h-13.7c3.21,3.51,7.35,7.49,12.56,11.39Z"/>
      <path class="cls-1" d="M563.61,65.2h-15.06c-3.79,1.97-8.1,4.55-12.59,7.92-5.21,3.9-9.35,7.88-12.56,11.39h13.7c3.44-3.42,7.55-7.12,12.4-10.81,4.49-3.41,10.17-6.21,14.12-8.5Z"/>
      <path class="cls-1" d="M535.96,11.39c4.5,3.37,8.81,5.95,12.59,7.92h15.06c-3.95-2.29-9.63-5.09-14.12-8.5-4.85-3.69-8.96-7.38-12.4-10.81h-13.7c3.21,3.51,7.35,7.49,12.56,11.39Z"/>
      <path class="cls-1" d="M582.3,65.2h-15.06c-3.79,1.97-8.1,4.55-12.59,7.92-5.21,3.9-9.35,7.88-12.56,11.39h13.7c3.44-3.42,7.55-7.12,12.4-10.81,4.49-3.41,10.17-6.21,14.12-8.5Z"/>
      <path class="cls-1" d="M554.65,11.39c4.5,3.37,8.81,5.95,12.59,7.92h15.06c-3.94-2.29-9.63-5.09-14.12-8.5-4.85-3.69-8.96-7.38-12.4-10.81h-13.7c3.21,3.51,7.35,7.49,12.56,11.39Z"/>
      <path class="cls-1" d="M601,65.2h-15.06c-3.79,1.97-8.1,4.55-12.59,7.92-5.21,3.9-9.35,7.88-12.56,11.39h13.7c3.44-3.42,7.55-7.12,12.4-10.81,4.49-3.41,10.17-6.21,14.12-8.5Z"/>
      <path class="cls-1" d="M573.35,11.39c4.5,3.37,8.81,5.95,12.59,7.92h15.06c-3.94-2.29-9.63-5.09-14.12-8.5-4.85-3.69-8.96-7.38-12.4-10.81h-13.7c3.21,3.51,7.35,7.49,12.56,11.39Z"/>
      <path class="cls-1" d="M619.69,65.2h-15.06c-3.79,1.97-8.1,4.55-12.59,7.92-5.21,3.9-9.35,7.88-12.56,11.39h13.69c3.44-3.42,7.55-7.12,12.4-10.81,4.49-3.41,10.17-6.21,14.12-8.5Z"/>
      <path class="cls-1" d="M592.04,11.39c4.5,3.37,8.81,5.95,12.59,7.92h15.06c-3.94-2.29-9.63-5.09-14.12-8.5-4.85-3.69-8.96-7.38-12.4-10.81h-13.69c3.21,3.51,7.35,7.49,12.56,11.39Z"/>
      <path class="cls-1" d="M638.38,65.2h-15.06c-3.79,1.97-8.1,4.55-12.59,7.92-5.21,3.9-9.35,7.88-12.56,11.39h13.69c3.44-3.42,7.55-7.12,12.4-10.81,4.49-3.41,10.17-6.21,14.12-8.5Z"/>
      <path class="cls-1" d="M610.73,11.39c4.5,3.37,8.81,5.95,12.59,7.92h15.06c-3.94-2.29-9.63-5.09-14.12-8.5-4.85-3.69-8.96-7.38-12.4-10.81h-13.69c3.21,3.51,7.35,7.49,12.56,11.39Z"/>
      <path class="cls-1" d="M657.07,65.2h-15.06c-3.79,1.97-8.1,4.55-12.59,7.92-5.21,3.9-9.35,7.88-12.56,11.39h13.69c3.44-3.42,7.55-7.12,12.4-10.81,4.49-3.41,10.17-6.21,14.12-8.5Z"/>
      <path class="cls-1" d="M629.42,11.39c4.5,3.37,8.81,5.95,12.59,7.92h15.06c-3.95-2.29-9.63-5.09-14.12-8.5-4.85-3.69-8.96-7.38-12.4-10.81h-13.69c3.21,3.51,7.35,7.49,12.56,11.39Z"/>
      <path class="cls-1" d="M675.77,65.2h-15.06c-3.79,1.97-8.1,4.55-12.59,7.92-5.21,3.9-9.35,7.88-12.56,11.39h13.7c3.44-3.42,7.55-7.12,12.4-10.81,4.49-3.41,10.17-6.21,14.12-8.5Z"/>
      <path class="cls-1" d="M648.12,11.39c4.5,3.37,8.81,5.95,12.59,7.92h15.06c-3.95-2.29-9.63-5.09-14.12-8.5-4.85-3.69-8.96-7.38-12.4-10.81h-13.7c3.21,3.51,7.35,7.49,12.56,11.39Z"/>
      <path class="cls-1" d="M694.46,65.2h-15.11c-3.79,1.97-8.1,4.55-12.59,7.92-5.21,3.9-9.35,7.88-12.56,11.39h13.74c3.44-3.42,7.55-7.12,12.4-10.81,4.49-3.41,10.17-6.21,14.12-8.5Z"/>
      <path class="cls-1" d="M713.15,65.2h-15.11c-3.79,1.97-8.1,4.55-12.59,7.92-5.21,3.9-9.35,7.88-12.56,11.39h13.74c3.44-3.42,7.55-7.12,12.4-10.81,4.49-3.41,10.17-6.21,14.12-8.5Z"/>
      <path class="cls-1" d="M731.85,65.2h-15.11c-3.79,1.97-8.1,4.55-12.59,7.92-5.21,3.9-9.35,7.88-12.56,11.39h13.74c3.44-3.42,7.55-7.12,12.4-10.81,4.49-3.41,10.17-6.21,14.12-8.5Z"/>
      <path class="cls-1" d="M750.54,65.2h-15.11c-3.79,1.97-8.1,4.55-12.59,7.92-5.21,3.9-9.35,7.88-12.56,11.39h13.74c3.44-3.42,7.55-7.12,12.4-10.81,4.49-3.41,10.17-6.21,14.12-8.5Z"/>
      <path class="cls-1" d="M769.23,65.2h-15.11c-3.79,1.97-8.1,4.55-12.59,7.92-5.21,3.9-9.35,7.88-12.56,11.39h13.74c3.44-3.42,7.55-7.12,12.4-10.81,4.49-3.41,10.17-6.21,14.12-8.5Z"/>
      <path class="cls-1" d="M787.92,65.2h-15.11c-3.79,1.97-8.1,4.55-12.59,7.92-5.21,3.9-9.35,7.88-12.56,11.39h13.74c3.44-3.42,7.55-7.12,12.4-10.81,4.49-3.41,10.17-6.21,14.12-8.5Z"/>
      <path class="cls-1" d="M806.62,65.2h-15.11c-3.79,1.97-8.1,4.55-12.59,7.92-5.21,3.9-9.35,7.88-12.56,11.39h13.74c3.44-3.42,7.55-7.12,12.4-10.81,4.49-3.41,10.17-6.21,14.12-8.5Z"/>
      <path class="cls-1" d="M825.31,65.2h-15.11c-3.79,1.97-8.1,4.55-12.59,7.92-5.21,3.9-9.35,7.88-12.56,11.39h13.74c3.44-3.42,7.55-7.12,12.4-10.81,4.49-3.41,10.17-6.21,14.12-8.5Z"/>
      <path class="cls-1" d="M844,65.2h-15.11c-3.79,1.97-8.1,4.55-12.59,7.92-5.21,3.9-9.35,7.88-12.56,11.39h13.74c3.44-3.42,7.55-7.12,12.4-10.81,4.49-3.41,10.17-6.21,14.12-8.5Z"/>
      <path class="cls-1" d="M862.7,65.2h-15.11c-3.79,1.97-8.1,4.55-12.59,7.92-5.21,3.9-9.35,7.88-12.56,11.39h13.74c3.44-3.42,7.55-7.12,12.4-10.81,4.49-3.41,10.17-6.21,14.12-8.5Z"/>
      <path class="cls-1" d="M881.39,65.2h-15.11c-3.79,1.97-8.1,4.55-12.59,7.92-5.21,3.9-9.35,7.88-12.56,11.39h13.74c3.44-3.42,7.55-7.12,12.4-10.81,4.49-3.41,10.17-6.21,14.12-8.5Z"/>
      <path class="cls-1" d="M900.08,65.2h-15.11c-3.79,1.97-8.1,4.55-12.59,7.92-5.21,3.9-9.35,7.88-12.56,11.39h13.74c3.44-3.42,7.55-7.12,12.4-10.81,4.49-3.41,10.17-6.21,14.12-8.5Z"/>
      <path class="cls-1" d="M918.78,65.2h-15.11c-3.79,1.97-8.1,4.55-12.59,7.92-5.21,3.9-9.35,7.88-12.56,11.39h13.74c3.43-3.42,7.55-7.12,12.4-10.81,4.49-3.41,10.17-6.21,14.12-8.5Z"/>
      <path class="cls-1" d="M937.47,65.2h-15.11c-3.79,1.97-8.1,4.55-12.59,7.92-5.21,3.9-9.35,7.88-12.56,11.39h13.74c3.44-3.42,7.55-7.12,12.4-10.81,4.49-3.41,10.17-6.21,14.12-8.5Z"/>
      <path class="cls-1" d="M956.16,65.2h-15.11c-3.79,1.97-8.1,4.55-12.59,7.92-5.21,3.9-9.35,7.88-12.56,11.39h13.74c3.44-3.42,7.55-7.12,12.4-10.81,4.49-3.41,10.17-6.21,14.12-8.5Z"/>
      <path class="cls-1" d="M974.85,65.2h-15.11c-3.79,1.97-8.1,4.55-12.59,7.92-5.21,3.9-9.35,7.88-12.56,11.39h13.74c3.44-3.42,7.55-7.12,12.4-10.81,4.49-3.41,10.17-6.21,14.12-8.5Z"/>
      <path class="cls-1" d="M993.55,65.2h-15.11c-3.79,1.97-8.1,4.55-12.59,7.92-5.21,3.9-9.35,7.88-12.56,11.39h13.74c3.44-3.42,7.55-7.12,12.4-10.81,4.49-3.41,10.17-6.21,14.12-8.5Z"/>
      <path class="cls-1" d="M1012.24,65.2h-15.11c-3.79,1.97-8.1,4.55-12.59,7.92-5.21,3.9-9.35,7.88-12.56,11.39h13.74c3.43-3.42,7.55-7.12,12.4-10.81,4.49-3.41,10.17-6.21,14.12-8.5Z"/>
      <path class="cls-1" d="M1030.93,65.2h-15.11c-3.79,1.97-8.1,4.55-12.59,7.92-5.21,3.9-9.35,7.88-12.56,11.39h13.74c3.44-3.42,7.55-7.12,12.4-10.81,4.49-3.41,10.17-6.21,14.12-8.5Z"/>
      <path class="cls-1" d="M1049.63,65.2h-15.11c-3.79,1.97-8.1,4.55-12.59,7.92-5.21,3.9-9.35,7.88-12.56,11.39h13.74c3.44-3.42,7.55-7.12,12.4-10.81,4.49-3.41,10.17-6.21,14.12-8.5Z"/>
      <path class="cls-1" d="M1068.32,65.2h-15.11c-3.79,1.97-8.1,4.55-12.59,7.92-5.21,3.9-9.35,7.88-12.56,11.39h13.74c3.44-3.42,7.55-7.12,12.4-10.81,4.49-3.41,10.17-6.21,14.12-8.5Z"/>
      <path class="cls-1" d="M1087.01,65.2h-15.11c-3.79,1.97-8.1,4.55-12.59,7.92-5.21,3.9-9.35,7.88-12.56,11.39h13.74c3.44-3.42,7.55-7.12,12.4-10.81,4.49-3.41,10.17-6.21,14.12-8.5Z"/>
      <path class="cls-1" d="M1105.7,65.2h-15.11c-3.79,1.97-8.1,4.55-12.59,7.92-5.21,3.9-9.35,7.88-12.56,11.39h13.74c3.44-3.42,7.55-7.12,12.4-10.81,4.49-3.41,10.17-6.21,14.12-8.5Z"/>
      <polygon class="cls-1" points="1759.91 27.65 1105.7 27.65 679.35 27.65 25.15 27.65 25.15 33.62 679.35 33.62 1105.7 33.62 1759.91 33.62 1759.91 27.65"/>
      <polygon class="cls-1" points="679.35 50.89 25.15 50.89 25.15 56.86 679.35 56.86 1105.7 56.86 1759.91 56.86 1759.91 50.89 1105.7 50.89 679.35 50.89"/>
      <polygon class="cls-1" points="1123.55 49.17 1127.71 42.26 1123.55 35.35 1116.04 35.35 1120.68 42.16 1116.04 49.17 1123.55 49.17"/>
      <polygon class="cls-1" points="1138.61 49.17 1142.77 42.26 1138.61 35.35 1131.1 35.35 1135.73 42.16 1131.1 49.17 1138.61 49.17"/>
      <polygon class="cls-1" points="1153.67 49.17 1157.82 42.26 1153.67 35.35 1146.16 35.35 1150.79 42.16 1146.16 49.17 1153.67 49.17"/>
      <polygon class="cls-1" points="1168.73 49.17 1172.88 42.26 1168.73 35.35 1161.22 35.35 1165.85 42.16 1161.22 49.17 1168.73 49.17"/>
      <polygon class="cls-1" points="1183.79 49.17 1187.94 42.26 1183.79 35.35 1176.27 35.35 1180.91 42.16 1176.27 49.17 1183.79 49.17"/>
      <polygon class="cls-1" points="1198.84 49.17 1203 42.26 1198.84 35.35 1191.33 35.35 1195.97 42.16 1191.33 49.17 1198.84 49.17"/>
      <polygon class="cls-1" points="1213.9 49.17 1218.06 42.26 1213.9 35.35 1206.39 35.35 1211.03 42.16 1206.39 49.17 1213.9 49.17"/>
      <polygon class="cls-1" points="1228.96 49.17 1233.11 42.26 1228.96 35.35 1221.45 35.35 1226.08 42.16 1221.45 49.17 1228.96 49.17"/>
      <polygon class="cls-1" points="1244.02 49.17 1248.17 42.26 1244.02 35.35 1236.51 35.35 1241.14 42.16 1236.51 49.17 1244.02 49.17"/>
      <polygon class="cls-1" points="1259.08 49.17 1263.23 42.26 1259.08 35.35 1251.56 35.35 1256.2 42.16 1251.56 49.17 1259.08 49.17"/>
      <polygon class="cls-1" points="1274.14 49.17 1278.29 42.26 1274.14 35.35 1266.62 35.35 1271.26 42.16 1266.62 49.17 1274.14 49.17"/>
      <polygon class="cls-1" points="1289.19 49.17 1293.35 42.26 1289.19 35.35 1281.68 35.35 1286.32 42.16 1281.68 49.17 1289.19 49.17"/>
      <polygon class="cls-1" points="1304.25 49.17 1308.41 42.26 1304.25 35.35 1296.74 35.35 1301.37 42.16 1296.74 49.17 1304.25 49.17"/>
      <polygon class="cls-1" points="1319.31 49.17 1323.46 42.26 1319.31 35.35 1311.8 35.35 1316.43 42.16 1311.8 49.17 1319.31 49.17"/>
      <polygon class="cls-1" points="1334.37 49.17 1338.52 42.26 1334.37 35.35 1326.85 35.35 1331.49 42.16 1326.85 49.17 1334.37 49.17"/>
      <polygon class="cls-1" points="1349.43 49.17 1353.58 42.26 1349.43 35.35 1341.91 35.35 1346.55 42.16 1341.91 49.17 1349.43 49.17"/>
      <polygon class="cls-1" points="1364.48 49.17 1368.64 42.26 1364.48 35.35 1356.97 35.35 1361.61 42.16 1356.97 49.17 1364.48 49.17"/>
      <polygon class="cls-1" points="1379.54 49.17 1383.7 42.26 1379.54 35.35 1372.03 35.35 1376.66 42.16 1372.03 49.17 1379.54 49.17"/>
      <polygon class="cls-1" points="1394.6 49.17 1398.75 42.26 1394.6 35.35 1387.09 35.35 1391.72 42.16 1387.09 49.17 1394.6 49.17"/>
      <polygon class="cls-1" points="1409.66 49.17 1413.81 42.26 1409.66 35.35 1402.15 35.35 1406.78 42.16 1402.15 49.17 1409.66 49.17"/>
      <polygon class="cls-1" points="1424.72 49.17 1428.87 42.26 1424.72 35.35 1417.2 35.35 1421.84 42.16 1417.2 49.17 1424.72 49.17"/>
      <polygon class="cls-1" points="1439.77 49.17 1443.93 42.26 1439.77 35.35 1432.26 35.35 1436.9 42.16 1432.26 49.17 1439.77 49.17"/>
      <polygon class="cls-1" points="1454.83 49.17 1458.99 42.26 1454.83 35.35 1447.32 35.35 1451.96 42.16 1447.32 49.17 1454.83 49.17"/>
      <polygon class="cls-1" points="1469.89 49.17 1474.04 42.26 1469.89 35.35 1462.38 35.35 1467.01 42.16 1462.38 49.17 1469.89 49.17"/>
      <polygon class="cls-1" points="1484.95 49.17 1489.1 42.26 1484.95 35.35 1477.44 35.35 1482.07 42.16 1477.44 49.17 1484.95 49.17"/>
      <polygon class="cls-1" points="1500.01 49.17 1504.16 42.26 1500.01 35.35 1492.49 35.35 1497.13 42.16 1492.49 49.17 1500.01 49.17"/>
      <polygon class="cls-1" points="1515.07 49.17 1519.22 42.26 1515.07 35.35 1507.55 35.35 1512.19 42.16 1507.55 49.17 1515.07 49.17"/>
      <polygon class="cls-1" points="1530.12 49.17 1534.28 42.26 1530.12 35.35 1522.61 35.35 1527.25 42.16 1522.61 49.17 1530.12 49.17"/>
      <polygon class="cls-1" points="1545.18 49.17 1549.34 42.26 1545.18 35.35 1537.67 35.35 1542.3 42.16 1537.67 49.17 1545.18 49.17"/>
      <polygon class="cls-1" points="1560.24 49.17 1564.39 42.26 1560.24 35.35 1552.73 35.35 1557.36 42.16 1552.73 49.17 1560.24 49.17"/>
      <polygon class="cls-1" points="1575.3 49.17 1579.45 42.26 1575.3 35.35 1567.79 35.35 1572.42 42.16 1567.79 49.17 1575.3 49.17"/>
      <polygon class="cls-1" points="1590.36 49.17 1594.51 42.26 1590.36 35.35 1582.84 35.35 1587.48 42.16 1582.84 49.17 1590.36 49.17"/>
      <polygon class="cls-1" points="1605.41 49.17 1609.57 42.26 1605.41 35.35 1597.9 35.35 1602.54 42.16 1597.9 49.17 1605.41 49.17"/>
      <polygon class="cls-1" points="1620.47 49.17 1624.63 42.26 1620.47 35.35 1612.96 35.35 1617.6 42.16 1612.96 49.17 1620.47 49.17"/>
      <polygon class="cls-1" points="1635.53 49.17 1639.68 42.26 1635.53 35.35 1628.02 35.35 1632.65 42.16 1628.02 49.17 1635.53 49.17"/>
      <polygon class="cls-1" points="1650.59 49.17 1654.74 42.26 1650.59 35.35 1643.08 35.35 1647.71 42.16 1643.08 49.17 1650.59 49.17"/>
      <polygon class="cls-1" points="1665.65 49.17 1669.8 42.26 1665.65 35.35 1658.13 35.35 1662.77 42.16 1658.13 49.17 1665.65 49.17"/>
      <polygon class="cls-1" points="1680.71 49.17 1684.86 42.26 1680.71 35.35 1673.19 35.35 1677.83 42.16 1673.19 49.17 1680.71 49.17"/>
      <polygon class="cls-1" points="1695.76 49.17 1699.92 42.26 1695.76 35.35 1688.25 35.35 1692.89 42.16 1688.25 49.17 1695.76 49.17"/>
      <polygon class="cls-1" points="1710.82 49.17 1714.98 42.26 1710.82 35.35 1703.31 35.35 1707.94 42.16 1703.31 49.17 1710.82 49.17"/>
      <polygon class="cls-1" points="1725.88 49.17 1730.03 42.26 1725.88 35.35 1718.37 35.35 1723 42.16 1718.37 49.17 1725.88 49.17"/>
      <polygon class="cls-1" points="1740.94 49.17 1745.09 42.26 1740.94 35.35 1733.42 35.35 1738.06 42.16 1733.42 49.17 1740.94 49.17"/>
      <polygon class="cls-1" points="1756 49.17 1760.15 42.26 1756 35.35 1748.48 35.35 1753.12 42.16 1748.48 49.17 1756 49.17"/>
      <path class="cls-1" d="M666.76,11.39c4.5,3.37,8.81,5.95,12.59,7.92h15.11c-3.95-2.29-9.63-5.09-14.12-8.5-4.85-3.69-8.96-7.38-12.4-10.81h-13.74c3.21,3.51,7.35,7.49,12.56,11.39Z"/>
      <path class="cls-1" d="M685.45,11.39c4.5,3.37,8.81,5.95,12.59,7.92h15.11c-3.95-2.29-9.63-5.09-14.12-8.5-4.85-3.69-8.96-7.38-12.4-10.81h-13.74c3.21,3.51,7.35,7.49,12.56,11.39Z"/>
      <path class="cls-1" d="M704.15,11.39c4.5,3.37,8.81,5.95,12.59,7.92h15.11c-3.95-2.29-9.63-5.09-14.12-8.5-4.85-3.69-8.96-7.38-12.4-10.81h-13.74c3.21,3.51,7.35,7.49,12.56,11.39Z"/>
      <path class="cls-1" d="M722.84,11.39c4.5,3.37,8.81,5.95,12.59,7.92h15.11c-3.94-2.29-9.63-5.09-14.12-8.5-4.85-3.69-8.96-7.38-12.4-10.81h-13.74c3.21,3.51,7.35,7.49,12.56,11.39Z"/>
      <path class="cls-1" d="M741.53,11.39c4.5,3.37,8.81,5.95,12.59,7.92h15.11c-3.94-2.29-9.63-5.09-14.12-8.5-4.85-3.69-8.96-7.38-12.4-10.81h-13.74c3.21,3.51,7.35,7.49,12.56,11.39Z"/>
      <path class="cls-1" d="M760.23,11.39c4.5,3.37,8.81,5.95,12.59,7.92h15.11c-3.94-2.29-9.63-5.09-14.12-8.5-4.85-3.69-8.96-7.38-12.4-10.81h-13.74c3.21,3.51,7.35,7.49,12.56,11.39Z"/>
      <path class="cls-1" d="M778.92,11.39c4.5,3.37,8.81,5.95,12.59,7.92h15.11c-3.95-2.29-9.63-5.09-14.12-8.5-4.85-3.69-8.96-7.38-12.4-10.81h-13.74c3.21,3.51,7.35,7.49,12.56,11.39Z"/>
      <path class="cls-1" d="M797.61,11.39c4.5,3.37,8.81,5.95,12.59,7.92h15.11c-3.95-2.29-9.63-5.09-14.12-8.5-4.85-3.69-8.96-7.38-12.4-10.81h-13.74c3.21,3.51,7.35,7.49,12.56,11.39Z"/>
      <path class="cls-1" d="M816.31,11.39c4.5,3.37,8.81,5.95,12.59,7.92h15.11c-3.94-2.29-9.63-5.09-14.12-8.5-4.85-3.69-8.96-7.38-12.4-10.81h-13.74c3.21,3.51,7.35,7.49,12.56,11.39Z"/>
      <path class="cls-1" d="M835,11.39c4.5,3.37,8.81,5.95,12.59,7.92h15.11c-3.94-2.29-9.63-5.09-14.12-8.5-4.85-3.69-8.96-7.38-12.4-10.81h-13.74c3.21,3.51,7.35,7.49,12.56,11.39Z"/>
      <path class="cls-1" d="M853.69,11.39c4.5,3.37,8.81,5.95,12.59,7.92h15.11c-3.94-2.29-9.63-5.09-14.12-8.5-4.85-3.69-8.96-7.38-12.4-10.81h-13.74c3.21,3.51,7.35,7.49,12.56,11.39Z"/>
      <path class="cls-1" d="M872.38,11.39c4.5,3.37,8.81,5.95,12.59,7.92h15.11c-3.94-2.29-9.63-5.09-14.12-8.5-4.85-3.69-8.96-7.38-12.4-10.81h-13.74c3.21,3.51,7.35,7.49,12.56,11.39Z"/>
      <path class="cls-1" d="M891.08,11.39c4.5,3.37,8.81,5.95,12.59,7.92h15.11c-3.95-2.29-9.63-5.09-14.12-8.5-4.85-3.69-8.96-7.38-12.4-10.81h-13.74c3.21,3.51,7.35,7.49,12.56,11.39Z"/>
      <path class="cls-1" d="M909.77,11.39c4.5,3.37,8.81,5.95,12.59,7.92h15.11c-3.94-2.29-9.63-5.09-14.12-8.5-4.85-3.69-8.96-7.38-12.4-10.81h-13.74c3.21,3.51,7.35,7.49,12.56,11.39Z"/>
      <path class="cls-1" d="M928.46,11.39c4.5,3.37,8.81,5.95,12.59,7.92h15.11c-3.95-2.29-9.63-5.09-14.12-8.5-4.85-3.69-8.96-7.38-12.4-10.81h-13.74c3.21,3.51,7.35,7.49,12.56,11.39Z"/>
      <path class="cls-1" d="M947.16,11.39c4.5,3.37,8.81,5.95,12.59,7.92h15.11c-3.94-2.29-9.63-5.09-14.12-8.5-4.85-3.69-8.96-7.38-12.4-10.81h-13.74c3.21,3.51,7.35,7.49,12.56,11.39Z"/>
      <path class="cls-1" d="M965.85,11.39c4.5,3.37,8.81,5.95,12.59,7.92h15.11c-3.95-2.29-9.63-5.09-14.12-8.5-4.85-3.69-8.96-7.38-12.4-10.81h-13.74c3.21,3.51,7.35,7.49,12.56,11.39Z"/>
      <path class="cls-1" d="M984.54,11.39c4.5,3.37,8.81,5.95,12.59,7.92h15.11c-3.94-2.29-9.63-5.09-14.12-8.5-4.85-3.69-8.96-7.38-12.4-10.81h-13.74c3.21,3.51,7.35,7.49,12.56,11.39Z"/>
      <path class="cls-1" d="M1003.23,11.39c4.5,3.37,8.81,5.95,12.59,7.92h15.11c-3.95-2.29-9.63-5.09-14.12-8.5-4.85-3.69-8.96-7.38-12.4-10.81h-13.74c3.21,3.51,7.35,7.49,12.56,11.39Z"/>
      <path class="cls-1" d="M1021.93,11.39c4.5,3.37,8.81,5.95,12.59,7.92h15.11c-3.94-2.29-9.63-5.09-14.12-8.5-4.85-3.69-8.96-7.38-12.4-10.81h-13.74c3.21,3.51,7.35,7.49,12.56,11.39Z"/>
      <path class="cls-1" d="M1040.62,11.39c4.5,3.37,8.81,5.95,12.59,7.92h15.11c-3.95-2.29-9.63-5.09-14.12-8.5-4.85-3.69-8.96-7.38-12.4-10.81h-13.74c3.21,3.51,7.35,7.49,12.56,11.39Z"/>
      <path class="cls-1" d="M1059.31,11.39c4.5,3.37,8.81,5.95,12.59,7.92h15.11c-3.94-2.29-9.63-5.09-14.12-8.5-4.85-3.69-8.96-7.38-12.4-10.81h-13.74c3.21,3.51,7.35,7.49,12.56,11.39Z"/>
      <path class="cls-1" d="M1078.01,11.39c4.5,3.37,8.81,5.95,12.59,7.92h15.11c-3.95-2.29-9.63-5.09-14.12-8.5-4.85-3.69-8.96-7.38-12.4-10.81h-13.74c3.21,3.51,7.35,7.49,12.56,11.39Z"/>
      <path class="cls-1" d="M1124.35,65.2h-15.06c-3.79,1.97-8.1,4.55-12.59,7.92-5.21,3.9-9.35,7.88-12.56,11.39h13.7c3.44-3.42,7.55-7.12,12.4-10.81,4.49-3.41,10.17-6.21,14.12-8.5Z"/>
      <path class="cls-1" d="M1096.7,11.39c4.5,3.37,8.81,5.95,12.59,7.92h15.06c-3.95-2.29-9.63-5.09-14.12-8.5-4.85-3.69-8.96-7.38-12.4-10.81h-13.7c3.21,3.51,7.35,7.49,12.56,11.39Z"/>
      <path class="cls-1" d="M1143.04,65.2h-15.06c-3.79,1.97-8.1,4.55-12.59,7.92-5.21,3.9-9.35,7.88-12.56,11.39h13.7c3.43-3.42,7.55-7.12,12.4-10.81,4.49-3.41,10.17-6.21,14.12-8.5Z"/>
      <path class="cls-1" d="M1115.39,11.39c4.5,3.37,8.81,5.95,12.59,7.92h15.06c-3.94-2.29-9.63-5.09-14.12-8.5-4.85-3.69-8.96-7.38-12.4-10.81h-13.7c3.21,3.51,7.35,7.49,12.56,11.39Z"/>
      <path class="cls-1" d="M1161.73,65.2h-15.06c-3.79,1.97-8.1,4.55-12.59,7.92-5.21,3.9-9.35,7.88-12.56,11.39h13.7c3.44-3.42,7.55-7.12,12.4-10.81,4.49-3.41,10.17-6.21,14.12-8.5Z"/>
      <path class="cls-1" d="M1134.08,11.39c4.5,3.37,8.81,5.95,12.59,7.92h15.06c-3.94-2.29-9.63-5.09-14.12-8.5-4.85-3.69-8.96-7.38-12.4-10.81h-13.7c3.21,3.51,7.35,7.49,12.56,11.39Z"/>
      <path class="cls-1" d="M1180.43,65.2h-15.06c-3.79,1.97-8.1,4.55-12.59,7.92-5.21,3.9-9.35,7.88-12.56,11.39h13.69c3.44-3.42,7.55-7.12,12.4-10.81,4.49-3.41,10.17-6.21,14.12-8.5Z"/>
      <path class="cls-1" d="M1152.78,11.39c4.5,3.37,8.81,5.95,12.59,7.92h15.06c-3.94-2.29-9.63-5.09-14.12-8.5-4.85-3.69-8.96-7.38-12.4-10.81h-13.69c3.21,3.51,7.35,7.49,12.56,11.39Z"/>
      <path class="cls-1" d="M1199.12,65.2h-15.06c-3.79,1.97-8.1,4.55-12.59,7.92-5.21,3.9-9.35,7.88-12.56,11.39h13.69c3.44-3.42,7.55-7.12,12.4-10.81,4.49-3.41,10.17-6.21,14.12-8.5Z"/>
      <path class="cls-1" d="M1171.47,11.39c4.5,3.37,8.81,5.95,12.59,7.92h15.06c-3.94-2.29-9.63-5.09-14.12-8.5-4.85-3.69-8.96-7.38-12.4-10.81h-13.69c3.21,3.51,7.35,7.49,12.56,11.39Z"/>
      <path class="cls-1" d="M1217.81,65.2h-15.06c-3.79,1.97-8.1,4.55-12.59,7.92-5.21,3.9-9.35,7.88-12.56,11.39h13.69c3.44-3.42,7.55-7.12,12.4-10.81,4.49-3.41,10.17-6.21,14.12-8.5Z"/>
      <path class="cls-1" d="M1190.16,11.39c4.5,3.37,8.81,5.95,12.59,7.92h15.06c-3.95-2.29-9.63-5.09-14.12-8.5-4.85-3.69-8.96-7.38-12.4-10.81h-13.69c3.21,3.51,7.35,7.49,12.56,11.39Z"/>
      <path class="cls-1" d="M1236.51,65.2h-15.06c-3.79,1.97-8.1,4.55-12.59,7.92-5.21,3.9-9.35,7.88-12.56,11.39h13.7c3.44-3.42,7.55-7.12,12.4-10.81,4.49-3.41,10.17-6.21,14.12-8.5Z"/>
      <path class="cls-1" d="M1208.86,11.39c4.5,3.37,8.81,5.95,12.59,7.92h15.06c-3.95-2.29-9.63-5.09-14.12-8.5-4.85-3.69-8.96-7.38-12.4-10.81h-13.7c3.21,3.51,7.35,7.49,12.56,11.39Z"/>
      <path class="cls-1" d="M1255.2,65.2h-15.06c-3.79,1.97-8.1,4.55-12.59,7.92-5.21,3.9-9.35,7.88-12.56,11.39h13.7c3.44-3.42,7.55-7.12,12.4-10.81,4.49-3.41,10.17-6.21,14.12-8.5Z"/>
      <path class="cls-1" d="M1227.55,11.39c4.5,3.37,8.81,5.95,12.59,7.92h15.06c-3.95-2.29-9.63-5.09-14.12-8.5-4.85-3.69-8.96-7.38-12.4-10.81h-13.7c3.21,3.51,7.35,7.49,12.56,11.39Z"/>
      <path class="cls-1" d="M1273.89,65.2h-15.06c-3.79,1.97-8.1,4.55-12.59,7.92-5.21,3.9-9.35,7.88-12.56,11.39h13.7c3.44-3.42,7.55-7.12,12.4-10.81,4.49-3.41,10.17-6.21,14.12-8.5Z"/>
      <path class="cls-1" d="M1246.24,11.39c4.5,3.37,8.81,5.95,12.59,7.92h15.06c-3.95-2.29-9.63-5.09-14.12-8.5-4.85-3.69-8.96-7.38-12.4-10.81h-13.7c3.21,3.51,7.35,7.49,12.56,11.39Z"/>
      <path class="cls-1" d="M1292.58,65.2h-15.06c-3.79,1.97-8.1,4.55-12.59,7.92-5.21,3.9-9.35,7.88-12.56,11.39h13.7c3.44-3.42,7.55-7.12,12.4-10.81,4.49-3.41,10.17-6.21,14.12-8.5Z"/>
      <path class="cls-1" d="M1264.93,11.39c4.5,3.37,8.81,5.95,12.59,7.92h15.06c-3.95-2.29-9.63-5.09-14.12-8.5-4.85-3.69-8.96-7.38-12.4-10.81h-13.7c3.21,3.51,7.35,7.49,12.56,11.39Z"/>
      <path class="cls-1" d="M1311.28,65.2h-15.06c-3.79,1.97-8.1,4.55-12.59,7.92-5.21,3.9-9.35,7.88-12.56,11.39h13.7c3.44-3.42,7.55-7.12,12.4-10.81,4.49-3.41,10.17-6.21,14.12-8.5Z"/>
      <path class="cls-1" d="M1283.63,11.39c4.5,3.37,8.81,5.95,12.59,7.92h15.06c-3.95-2.29-9.63-5.09-14.12-8.5-4.85-3.69-8.96-7.38-12.4-10.81h-13.7c3.21,3.51,7.35,7.49,12.56,11.39Z"/>
      <path class="cls-1" d="M1329.97,65.2h-15.06c-3.79,1.97-8.1,4.55-12.59,7.92-5.21,3.9-9.35,7.88-12.56,11.39h13.7c3.44-3.42,7.55-7.12,12.4-10.81,4.49-3.41,10.17-6.21,14.12-8.5Z"/>
      <path class="cls-1" d="M1302.32,11.39c4.5,3.37,8.81,5.95,12.59,7.92h15.06c-3.94-2.29-9.63-5.09-14.12-8.5-4.85-3.69-8.96-7.38-12.4-10.81h-13.7c3.21,3.51,7.35,7.49,12.56,11.39Z"/>
      <path class="cls-1" d="M1348.66,65.2h-15.06c-3.79,1.97-8.1,4.55-12.59,7.92-5.21,3.9-9.35,7.88-12.56,11.39h13.7c3.44-3.42,7.55-7.12,12.4-10.81,4.49-3.41,10.17-6.21,14.12-8.5Z"/>
      <path class="cls-1" d="M1321.01,11.39c4.5,3.37,8.81,5.95,12.59,7.92h15.06c-3.94-2.29-9.63-5.09-14.12-8.5-4.85-3.69-8.96-7.38-12.4-10.81h-13.7c3.21,3.51,7.35,7.49,12.56,11.39Z"/>
      <path class="cls-1" d="M1367.36,65.2h-15.06c-3.79,1.97-8.1,4.55-12.59,7.92-5.21,3.9-9.35,7.88-12.56,11.39h13.7c3.44-3.42,7.55-7.12,12.4-10.81,4.49-3.41,10.17-6.21,14.12-8.5Z"/>
      <path class="cls-1" d="M1339.71,11.39c4.5,3.37,8.81,5.95,12.59,7.92h15.06c-3.95-2.29-9.63-5.09-14.12-8.5-4.85-3.69-8.96-7.38-12.4-10.81h-13.7c3.21,3.51,7.35,7.49,12.56,11.39Z"/>
      <path class="cls-1" d="M1386.05,65.2h-15.06c-3.79,1.97-8.1,4.55-12.59,7.92-5.21,3.9-9.35,7.88-12.56,11.39h13.7c3.44-3.42,7.55-7.12,12.4-10.81,4.49-3.41,10.17-6.21,14.12-8.5Z"/>
      <path class="cls-1" d="M1358.4,11.39c4.5,3.37,8.81,5.95,12.59,7.92h15.06c-3.95-2.29-9.63-5.09-14.12-8.5-4.85-3.69-8.96-7.38-12.4-10.81h-13.7c3.21,3.51,7.35,7.49,12.56,11.39Z"/>
      <path class="cls-1" d="M1404.74,65.2h-15.06c-3.79,1.97-8.1,4.55-12.59,7.92-5.21,3.9-9.35,7.88-12.56,11.39h13.7c3.44-3.42,7.55-7.12,12.4-10.81,4.49-3.41,10.17-6.21,14.12-8.5Z"/>
      <path class="cls-1" d="M1377.09,11.39c4.5,3.37,8.81,5.95,12.59,7.92h15.06c-3.94-2.29-9.63-5.09-14.12-8.5-4.85-3.69-8.96-7.38-12.4-10.81h-13.7c3.21,3.51,7.35,7.49,12.56,11.39Z"/>
      <path class="cls-1" d="M1423.43,65.2h-15.06c-3.79,1.97-8.1,4.55-12.59,7.92-5.21,3.9-9.35,7.88-12.56,11.39h13.7c3.44-3.42,7.55-7.12,12.4-10.81,4.49-3.41,10.17-6.21,14.12-8.5Z"/>
      <path class="cls-1" d="M1395.78,11.39c4.5,3.37,8.81,5.95,12.59,7.92h15.06c-3.94-2.29-9.63-5.09-14.12-8.5-4.85-3.69-8.96-7.38-12.4-10.81h-13.7c3.21,3.51,7.35,7.49,12.56,11.39Z"/>
      <path class="cls-1" d="M1442.13,65.2h-15.06c-3.79,1.97-8.1,4.55-12.59,7.92-5.21,3.9-9.35,7.88-12.56,11.39h13.69c3.44-3.42,7.55-7.12,12.4-10.81,4.49-3.41,10.17-6.21,14.12-8.5Z"/>
      <path class="cls-1" d="M1414.48,11.39c4.5,3.37,8.81,5.95,12.59,7.92h15.06c-3.94-2.29-9.63-5.09-14.12-8.5-4.85-3.69-8.96-7.38-12.4-10.81h-13.69c3.21,3.51,7.35,7.49,12.56,11.39Z"/>
      <path class="cls-1" d="M1460.82,65.2h-15.06c-3.79,1.97-8.1,4.55-12.59,7.92-5.21,3.9-9.35,7.88-12.56,11.39h13.69c3.44-3.42,7.55-7.12,12.4-10.81,4.49-3.41,10.17-6.21,14.12-8.5Z"/>
      <path class="cls-1" d="M1433.17,11.39c4.5,3.37,8.81,5.95,12.59,7.92h15.06c-3.94-2.29-9.63-5.09-14.12-8.5-4.85-3.69-8.96-7.38-12.4-10.81h-13.69c3.21,3.51,7.35,7.49,12.56,11.39Z"/>
      <path class="cls-1" d="M1479.51,65.2h-15.06c-3.79,1.97-8.1,4.55-12.59,7.92-5.21,3.9-9.35,7.88-12.56,11.39h13.7c3.43-3.42,7.55-7.12,12.4-10.81,4.49-3.41,10.17-6.21,14.12-8.5Z"/>
      <path class="cls-1" d="M1451.86,11.39c4.5,3.37,8.81,5.95,12.59,7.92h15.06c-3.95-2.29-9.63-5.09-14.12-8.5-4.85-3.69-8.96-7.38-12.4-10.81h-13.7c3.21,3.51,7.35,7.49,12.56,11.39Z"/>
      <path class="cls-1" d="M1498.21,65.2h-15.06c-3.79,1.97-8.1,4.55-12.59,7.92-5.21,3.9-9.35,7.88-12.56,11.39h13.7c3.43-3.42,7.55-7.12,12.4-10.81,4.49-3.41,10.17-6.21,14.12-8.5Z"/>
      <path class="cls-1" d="M1470.56,11.39c4.5,3.37,8.81,5.95,12.59,7.92h15.06c-3.95-2.29-9.63-5.09-14.12-8.5-4.85-3.69-8.96-7.38-12.4-10.81h-13.7c3.21,3.51,7.35,7.49,12.56,11.39Z"/>
      <path class="cls-1" d="M1516.9,65.2h-15.06c-3.79,1.97-8.1,4.55-12.59,7.92-5.21,3.9-9.35,7.88-12.56,11.39h13.7c3.44-3.42,7.55-7.12,12.4-10.81,4.49-3.41,10.17-6.21,14.12-8.5Z"/>
      <path class="cls-1" d="M1489.25,11.39c4.5,3.37,8.81,5.95,12.59,7.92h15.06c-3.95-2.29-9.63-5.09-14.12-8.5-4.85-3.69-8.96-7.38-12.4-10.81h-13.7c3.21,3.51,7.35,7.49,12.56,11.39Z"/>
      <path class="cls-1" d="M1535.59,65.2h-15.06c-3.79,1.97-8.1,4.55-12.59,7.92-5.21,3.9-9.35,7.88-12.56,11.39h13.7c3.44-3.42,7.55-7.12,12.4-10.81,4.49-3.41,10.17-6.21,14.12-8.5Z"/>
      <path class="cls-1" d="M1507.94,11.39c4.5,3.37,8.81,5.95,12.59,7.92h15.06c-3.94-2.29-9.63-5.09-14.12-8.5-4.85-3.69-8.96-7.38-12.4-10.81h-13.7c3.21,3.51,7.35,7.49,12.56,11.39Z"/>
      <path class="cls-1" d="M1554.28,65.2h-15.06c-3.79,1.97-8.1,4.55-12.59,7.92-5.21,3.9-9.35,7.88-12.56,11.39h13.69c3.44-3.42,7.55-7.12,12.4-10.81,4.49-3.41,10.17-6.21,14.12-8.5Z"/>
      <path class="cls-1" d="M1526.64,11.39c4.5,3.37,8.81,5.95,12.59,7.92h15.06c-3.94-2.29-9.63-5.09-14.12-8.5-4.85-3.69-8.96-7.38-12.4-10.81h-13.69c3.21,3.51,7.35,7.49,12.56,11.39Z"/>
      <path class="cls-1" d="M1572.98,65.2h-15.06c-3.79,1.97-8.1,4.55-12.59,7.92-5.21,3.9-9.35,7.88-12.56,11.39h13.7c3.43-3.42,7.55-7.12,12.4-10.81,4.49-3.41,10.17-6.21,14.12-8.5Z"/>
      <path class="cls-1" d="M1545.33,11.39c4.5,3.37,8.81,5.95,12.59,7.92h15.06c-3.95-2.29-9.63-5.09-14.12-8.5-4.85-3.69-8.96-7.38-12.4-10.81h-13.7c3.21,3.51,7.35,7.49,12.56,11.39Z"/>
      <path class="cls-1" d="M1591.67,65.2h-15.06c-3.79,1.97-8.1,4.55-12.59,7.92-5.21,3.9-9.35,7.88-12.56,11.39h13.7c3.44-3.42,7.55-7.12,12.4-10.81,4.49-3.41,10.17-6.21,14.12-8.5Z"/>
      <path class="cls-1" d="M1564.02,11.39c4.5,3.37,8.81,5.95,12.59,7.92h15.06c-3.95-2.29-9.63-5.09-14.12-8.5-4.85-3.69-8.96-7.38-12.4-10.81h-13.7c3.21,3.51,7.35,7.49,12.56,11.39Z"/>
      <path class="cls-1" d="M1610.36,65.2h-15.06c-3.79,1.97-8.1,4.55-12.59,7.92-5.21,3.9-9.35,7.88-12.56,11.39h13.7c3.44-3.42,7.55-7.12,12.4-10.81,4.49-3.41,10.17-6.21,14.12-8.5Z"/>
      <path class="cls-1" d="M1582.71,11.39c4.5,3.37,8.81,5.95,12.59,7.92h15.06c-3.95-2.29-9.63-5.09-14.12-8.5-4.85-3.69-8.96-7.38-12.4-10.81h-13.7c3.21,3.51,7.35,7.49,12.56,11.39Z"/>
      <path class="cls-1" d="M1629.06,65.2h-15.06c-3.79,1.97-8.1,4.55-12.59,7.92-5.21,3.9-9.35,7.88-12.56,11.39h13.7c3.44-3.42,7.55-7.12,12.4-10.81,4.49-3.41,10.17-6.21,14.12-8.5Z"/>
      <path class="cls-1" d="M1601.41,11.39c4.5,3.37,8.81,5.95,12.59,7.92h15.06c-3.95-2.29-9.63-5.09-14.12-8.5-4.85-3.69-8.96-7.38-12.4-10.81h-13.7c3.21,3.51,7.35,7.49,12.56,11.39Z"/>
      <path class="cls-1" d="M1647.75,65.2h-15.06c-3.79,1.97-8.1,4.55-12.59,7.92-5.21,3.9-9.35,7.88-12.56,11.39h13.7c3.44-3.42,7.55-7.12,12.4-10.81,4.49-3.41,10.17-6.21,14.12-8.5Z"/>
      <path class="cls-1" d="M1620.1,11.39c4.5,3.37,8.81,5.95,12.59,7.92h15.06c-3.95-2.29-9.63-5.09-14.12-8.5-4.85-3.69-8.96-7.38-12.4-10.81h-13.7c3.21,3.51,7.35,7.49,12.56,11.39Z"/>
      <path class="cls-1" d="M1666.44,65.2h-15.06c-3.79,1.97-8.1,4.55-12.59,7.92-5.21,3.9-9.35,7.88-12.56,11.39h13.7c3.44-3.42,7.55-7.12,12.4-10.81,4.49-3.41,10.17-6.21,14.12-8.5Z"/>
      <path class="cls-1" d="M1638.79,11.39c4.5,3.37,8.81,5.95,12.59,7.92h15.06c-3.95-2.29-9.63-5.09-14.12-8.5-4.85-3.69-8.96-7.38-12.4-10.81h-13.7c3.21,3.51,7.35,7.49,12.56,11.39Z"/>
      <path class="cls-1" d="M1685.13,65.2h-15.06c-3.79,1.97-8.1,4.55-12.59,7.92-5.21,3.9-9.35,7.88-12.56,11.39h13.7c3.44-3.42,7.55-7.12,12.4-10.81,4.49-3.41,10.17-6.21,14.12-8.5Z"/>
      <path class="cls-1" d="M1657.49,11.39c4.5,3.37,8.81,5.95,12.59,7.92h15.06c-3.94-2.29-9.63-5.09-14.12-8.5-4.85-3.69-8.96-7.38-12.4-10.81h-13.7c3.21,3.51,7.35,7.49,12.56,11.39Z"/>
      <path class="cls-1" d="M1703.83,65.2h-15.06c-3.79,1.97-8.1,4.55-12.59,7.92-5.21,3.9-9.35,7.88-12.56,11.39h13.7c3.44-3.42,7.55-7.12,12.4-10.81,4.49-3.41,10.17-6.21,14.12-8.5Z"/>
      <path class="cls-1" d="M1676.18,11.39c4.5,3.37,8.81,5.95,12.59,7.92h15.06c-3.94-2.29-9.63-5.09-14.12-8.5-4.85-3.69-8.96-7.38-12.4-10.81h-13.7c3.21,3.51,7.35,7.49,12.56,11.39Z"/>
      <path class="cls-1" d="M1722.52,65.2h-15.06c-3.79,1.97-8.1,4.55-12.59,7.92-5.21,3.9-9.35,7.88-12.56,11.39h13.7c3.44-3.42,7.55-7.12,12.4-10.81,4.49-3.41,10.17-6.21,14.12-8.5Z"/>
      <path class="cls-1" d="M1694.87,11.39c4.5,3.37,8.81,5.95,12.59,7.92h15.06c-3.94-2.29-9.63-5.09-14.12-8.5-4.85-3.69-8.96-7.38-12.4-10.81h-13.7c3.21,3.51,7.35,7.49,12.56,11.39Z"/>
      <path class="cls-1" d="M1741.21,65.2h-15.06c-3.79,1.97-8.1,4.55-12.59,7.92-5.21,3.9-9.35,7.88-12.56,11.39h13.7c3.43-3.42,7.55-7.12,12.4-10.81,4.49-3.41,10.17-6.21,14.12-8.5Z"/>
      <path class="cls-1" d="M1713.56,11.39c4.5,3.37,8.81,5.95,12.59,7.92h15.06c-3.94-2.29-9.63-5.09-14.12-8.5-4.85-3.69-8.96-7.38-12.4-10.81h-13.7c3.21,3.51,7.35,7.49,12.56,11.39Z"/>
      <path class="cls-1" d="M1732.26,73.12c-5.21,3.9-9.35,7.88-12.56,11.39h13.7c3.43-3.42,7.55-7.12,12.4-10.81,4.49-3.41,10.17-6.21,14.12-8.5h-15.06c-3.79,1.97-8.1,4.55-12.59,7.92Z"/>
      <path class="cls-1" d="M1732.26,11.39c4.5,3.37,8.81,5.95,12.59,7.92h15.06c-3.95-2.29-9.63-5.09-14.12-8.5-4.85-3.69-8.96-7.38-12.4-10.81h-13.7c3.21,3.51,7.35,7.49,12.56,11.39Z"/>
    </g>
  </g>
</svg>
